HIERARCHY
ROOT Hips
{
	OFFSET 0.000000 0.000000 0.000000
	CHANNELS 6 Xposition Yposition Zposition Zrotation Yrotation Xrotation 
	JOINT LHipJoint
	{
		OFFSET 0.000000 0.000000 0.000000
		CHANNELS 3 Zrotation Yrotation Xrotation
		JOINT LeftUpLeg
		{
			OFFSET 1.363060 -1.794630 0.839290
			CHANNELS 3 Zrotation Yrotation Xrotation
			JOINT LeftLeg
			{
				OFFSET 2.448110 -6.726130 0.000000
				CHANNELS 3 Zrotation Yrotation Xrotation
				JOINT LeftFoot
				{
					OFFSET 2.562200 -7.039590 0.000000
					CHANNELS 3 Zrotation Yrotation Xrotation
					JOINT LeftToeBase
					{
						OFFSET 0.157640 -0.433110 2.322550
						CHANNELS 3 Zrotation Yrotation Xrotation
						End Site
						{
							OFFSET 0.000000 0.000000 0.000000
						}
					}
				}
			}
		}
	}
	JOINT RHipJoint
	{
		OFFSET 0.000000 0.000000 0.000000
		CHANNELS 3 Zrotation Yrotation Xrotation
		JOINT RightUpLeg
		{
			OFFSET -1.305520 -1.794630 0.839290
			CHANNELS 3 Zrotation Yrotation Xrotation
			JOINT RightLeg
			{
				OFFSET -2.542530 -6.985550 0.000000
				CHANNELS 3 Zrotation Yrotation Xrotation
				JOINT RightFoot
				{
					OFFSET -2.568260 -7.056230 0.000000
					CHANNELS 3 Zrotation Yrotation Xrotation
					JOINT RightToeBase
					{
						OFFSET -0.164730 -0.452590 2.363150
						CHANNELS 3 Zrotation Yrotation Xrotation
						End Site
						{
							OFFSET 0.000000 0.000000 0.000000
						}
					}
				}
			}
		}
	}
	JOINT LowerBack
	{
		OFFSET 0.000000 0.000000 0.000000
		CHANNELS 3 Zrotation Yrotation Xrotation
		JOINT Spine
		{
			OFFSET 0.028270 2.035590 -0.193380
			CHANNELS 3 Zrotation Yrotation Xrotation
			JOINT Spine1
			{
				OFFSET 0.056720 2.048850 -0.042750
				CHANNELS 3 Zrotation Yrotation Xrotation
				JOINT Neck
				{
					OFFSET 0.000000 0.000000 0.000000
					CHANNELS 3 Zrotation Yrotation Xrotation
					JOINT Neck1
					{
						OFFSET -0.054170 1.746240 0.172020
						CHANNELS 3 Zrotation Yrotation Xrotation
						JOINT Head
						{
							OFFSET 0.104070 1.761360 -0.123970
							CHANNELS 3 Zrotation Yrotation Xrotation
							End Site
							{
								OFFSET 0.000000 0.000000 0.000000
							}
						}
					}
				}
				JOINT LeftShoulder
				{
					OFFSET 0.000000 0.000000 0.000000
					CHANNELS 3 Zrotation Yrotation Xrotation
					JOINT LeftArm
					{
						OFFSET 3.362410 1.200890 -0.311210
						CHANNELS 3 Zrotation Yrotation Xrotation
						JOINT LeftForeArm
						{
							OFFSET 4.983000 -0.000000 -0.000000
							CHANNELS 3 Zrotation Yrotation Xrotation
							JOINT LeftHand
							{
								OFFSET 3.483560 -0.000000 -0.000000
								CHANNELS 3 Zrotation Yrotation Xrotation
								JOINT LeftFingerBase
								{
									OFFSET 0.000000 0.000000 0.000000
									CHANNELS 3 Zrotation Yrotation Xrotation
									JOINT LeftHandIndex1
									{
										OFFSET 0.715260 -0.000000 -0.000000
										CHANNELS 3 Zrotation Yrotation Xrotation
										End Site
										{
											OFFSET 0.000000 0.000000 0.000000
										}
									}
								}
								JOINT LThumb
								{
									OFFSET 0.000000 0.000000 0.000000
									CHANNELS 3 Zrotation Yrotation Xrotation
									End Site
									{
										OFFSET 0.000000 0.000000 0.000000
									}
								}
							}
						}
					}
				}
				JOINT RightShoulder
				{
					OFFSET 0.000000 0.000000 0.000000
					CHANNELS 3 Zrotation Yrotation Xrotation
					JOINT RightArm
					{
						OFFSET -3.136600 1.374050 -0.404650
						CHANNELS 3 Zrotation Yrotation Xrotation
						JOINT RightForeArm
						{
							OFFSET -5.241900 -0.000000 -0.000000
							CHANNELS 3 Zrotation Yrotation Xrotation
							JOINT RightHand
							{
								OFFSET -3.444170 -0.000000 -0.000000
								CHANNELS 3 Zrotation Yrotation Xrotation
								JOINT RightFingerBase
								{
									OFFSET 0.000000 0.000000 0.000000
									CHANNELS 3 Zrotation Yrotation Xrotation
									JOINT RightHandIndex1
									{
										OFFSET -0.622530 -0.000000 -0.000000
										CHANNELS 3 Zrotation Yrotation Xrotation
										End Site
										{
											OFFSET 0.000000 0.000000 0.000000
										}
									}
								}
								JOINT RThumb
								{
									OFFSET 0.000000 0.000000 0.000000
									CHANNELS 3 Zrotation Yrotation Xrotation
									End Site
									{
										OFFSET 0.000000 0.000000 0.000000
									}
								}
							}
						}
					}
				}
			}
		}
	}
}
MOTION
Frames: 12
Frame Time: 0.008333
-2.463079 16.732336 -1.579613 -159.089677 73.700904 -153.465014 -10.186290 1.230848 3.320460 -20.267689 -0.013643 -27.058259 -2.579544 -0.720834 14.184226 1.736451 6.624783 -13.498201 179.204200 -0.000001 -0.970499 9.971586 -4.122655 -3.696598 2.992860 -26.392182 -10.346387 0.173858 -3.472060 49.335760 -0.056342 9.173338 17.290852 3.777700 -0.000000 -83.361000 3.856533 3.470271 -1.784138 -0.687792 3.055938 -3.172826 -7.757215 3.148117 1.022848 10.370490 -7.244937 -9.523359 -3.096927 -0.218837 -0.529335 0.000000 0.000000 0.000000 -1.528652 27.402137 1.180773 -56.523187 14.045659 -20.599622 -1.089820 -64.141067 -0.006101 19.252731 -2.257746 -0.395862 -0.245591 0.057858 -0.000000 0.000000 0.000000 0.000000 0.000000 0.000000 0.000000 13.200033 2.713213 -2.148433 74.999879 13.216136 7.983269 0.973227 66.565091 -0.039149 -9.091048 10.955220 -0.918713 0.123904 -0.431931 -0.000000 0.000000 0.000000 0.000000 0.000000 0.000000 0.000000 
-2.305530 16.706899 -1.633735 -161.184739 72.893481 -155.370203 -10.053225 1.314954 3.363671 -20.830915 -0.586454 -26.989131 -2.605142 -0.612331 15.402855 1.739159 6.531676 -13.761398 179.167700 -0.000000 -3.134400 10.185411 -3.933250 -3.648085 2.400456 -25.947249 -11.953332 -0.084731 -3.606958 52.401428 -0.238226 8.287223 18.365028 3.664000 0.000000 -80.913000 3.602372 3.266190 -1.919985 -0.722971 2.864982 -3.196118 -7.755271 2.954859 1.030866 10.471396 -7.437760 -9.583042 -3.138234 -0.221373 -0.545478 0.000000 0.000000 0.000000 -1.649727 27.086389 1.126265 -56.713134 13.447501 -20.082513 -1.071741 -64.692098 -0.007408 19.238031 -2.212451 -0.388436 -0.246367 0.061527 -0.000000 0.000000 0.000000 0.000000 0.000000 0.000000 0.000000 13.568175 2.392052 -2.060371 75.173052 12.707345 7.464717 1.015674 65.764380 -0.037873 -9.146166 11.061046 -0.932530 0.125783 -0.424867 -0.000000 0.000000 0.000000 0.000000 0.000000 0.000000 0.000000 
-2.151658 16.684362 -1.689430 -163.022672 72.079933 -156.944870 -9.939718 1.384271 3.404779 -21.358811 -1.128634 -26.958301 -2.629611 -0.514033 16.521892 1.735587 6.400044 -14.017276 179.136400 0.000000 -5.001300 10.354940 -3.736524 -3.546763 2.001575 -25.171066 -13.654590 -0.325961 -3.736229 55.321935 -0.423457 6.869033 18.881149 3.222100 -0.000000 -77.888999 3.387954 3.067259 -2.097312 -0.749178 2.674836 -3.225362 -7.748104 2.762464 1.041596 10.541803 -7.625689 -9.640456 -3.179719 -0.224039 -0.560720 0.000000 0.000000 0.000000 -1.840215 26.758769 1.063547 -56.920397 12.746387 -19.481470 -1.060637 -65.145928 -0.008551 19.206447 -2.156785 -0.378709 -0.246630 0.064553 -0.000000 0.000000 0.000000 0.000000 0.000000 0.000000 0.000000 13.901524 2.064020 -1.971203 75.315948 12.184930 6.894517 1.059226 64.930640 -0.036653 -9.229396 11.166663 -0.949245 0.127844 -0.417222 -0.000000 0.000000 0.000000 0.000000 0.000000 0.000000 0.000000 
-2.001587 16.665367 -1.747071 -164.617292 71.273339 -158.214575 -9.846991 1.438720 3.444223 -21.833680 -1.655475 -26.919249 -2.652119 -0.428909 17.494325 1.722359 6.224618 -14.235857 179.115401 0.000000 -6.553400 10.486277 -3.533101 -3.396449 1.759692 -24.084919 -15.424247 -0.554459 -3.857799 58.060286 -0.610656 5.030988 18.854361 2.518500 0.000001 -74.577700 3.219818 2.877046 -2.310757 -0.765288 2.488897 -3.259066 -7.735509 2.574467 1.056609 10.582156 -7.814277 -9.696463 -3.220368 -0.226739 -0.575336 0.000000 0.000000 0.000000 -2.096950 26.425879 0.992848 -57.151949 11.936334 -18.796937 -1.056720 -65.494054 -0.009549 19.158271 -2.093035 -0.367282 -0.246392 0.067053 -0.000000 0.000000 0.000000 0.000000 0.000000 0.000000 0.000000 14.198068 1.724946 -1.881449 75.420133 11.653183 6.288367 1.103547 64.071179 -0.035485 -9.340426 11.266882 -0.968567 0.130105 -0.408985 -0.000000 0.000000 0.000000 0.000000 0.000000 0.000000 0.000000 
-1.855437 16.650397 -1.807128 -165.972527 70.481945 -159.196668 -9.777365 1.478244 3.480345 -22.237711 -2.168647 -26.838666 -2.672767 -0.358781 18.291345 1.695608 5.992215 -14.400155 179.108600 0.000000 -7.819899 10.583323 -3.323711 -3.199995 1.640328 -22.710933 -17.229363 -0.771546 -3.967294 60.573289 -0.799148 2.919811 18.334841 1.656200 0.000000 -71.130701 3.109363 2.698154 -2.555159 -0.769041 2.309158 -3.296408 -7.717262 2.392916 1.075064 10.591702 -8.001279 -9.749324 -3.259451 -0.229433 -0.588861 0.000000 0.000000 0.000000 -2.418069 26.089223 0.915441 -57.413095 11.024299 -18.030555 -1.059818 -65.737136 -0.010431 19.094368 -2.023099 -0.354456 -0.245684 0.069129 -0.000000 0.000000 0.000000 0.000000 0.000000 0.000000 0.000000 14.452680 1.379028 -1.791793 75.477916 11.106273 5.654059 1.147891 63.199975 -0.034340 -9.472460 11.355778 -0.989191 0.132465 -0.400176 -0.000000 0.000000 0.000000 0.000000 0.000000 0.000000 0.000000 
-1.713087 16.639741 -1.869935 -167.109731 69.709946 -159.925801 -9.730822 1.503269 3.511660 -22.563457 -2.669843 -26.687868 -2.692217 -0.305273 18.891282 1.653407 5.697234 -14.499251 179.117900 -0.000001 -8.835901 10.650395 -3.108648 -2.960918 1.598446 -21.081585 -19.033995 -0.974980 -4.060163 62.815286 -0.986839 0.701461 17.402809 0.752000 0.000000 -67.678000 3.060167 2.530680 -2.824960 -0.759505 2.135595 -3.336223 -7.692906 2.217835 1.097569 10.572191 -8.190103 -9.798876 -3.295789 -0.232017 -0.601268 0.000000 0.000000 0.000000 -2.796452 25.751552 0.832762 -57.709408 10.017066 -17.182538 -1.069748 -65.876670 -0.011241 19.016856 -1.949699 -0.340829 -0.244586 0.070964 -0.000000 0.000000 0.000000 0.000000 0.000000 0.000000 0.000000 14.663124 1.023342 -1.703045 75.485247 10.546122 5.007564 1.191879 62.326000 -0.033197 -9.618957 11.429902 -1.010218 0.134866 -0.390846 -0.000000 0.000000 0.000000 0.000000 0.000000 0.000000 0.000000 
-1.574392 16.633499 -1.935732 -168.051125 68.956889 -160.439800 -9.707233 1.514551 3.535537 -22.808103 -3.154832 -26.444023 -2.711180 -0.269079 19.284840 1.595473 5.338527 -14.533799 179.142800 0.000000 -9.668400 10.690250 -2.888885 -2.684050 1.589438 -19.238211 -20.799321 -1.160249 -4.132452 64.740878 -1.168953 -1.462965 16.156588 -0.089800 0.000000 -64.323800 3.074529 2.373241 -3.112541 -0.735981 1.966796 -3.378082 -7.662303 2.047713 1.120371 10.523864 -8.371911 -9.840570 -3.329194 -0.234515 -0.611340 0.000000 0.000000 0.000000 -3.224827 25.404198 0.747964 -58.043673 8.940700 -16.257599 -1.085654 -65.927104 -0.012013 18.927869 -1.874500 -0.326702 -0.243168 0.072695 -0.000000 0.000000 0.000000 0.000000 0.000000 0.000000 0.000000 14.825328 0.667841 -1.615720 75.441291 9.960441 4.349160 1.234555 61.466826 -0.032027 -9.766624 11.486227 -1.029951 0.137109 -0.381106 -0.000000 0.000000 0.000000 0.000000 0.000000 0.000000 0.000000 
-1.438936 16.631525 -2.004604 -168.833106 68.218496 -160.785248 -9.703737 1.513677 3.553020 -22.977986 -3.629284 -26.094269 -2.730004 -0.250649 19.468590 1.524603 4.929695 -14.507004 179.180700 0.000000 -10.345600 10.705804 -2.665714 -2.374278 1.568235 -17.231617 -22.498017 -1.321812 -4.181963 66.313924 -1.337649 -3.431184 14.696444 -0.792200 0.000000 -61.123600 3.145378 2.222332 -3.414290 -0.699395 1.799732 -3.420585 -7.624546 1.879571 1.146829 10.451221 -8.561554 -9.877575 -3.357613 -0.236705 -0.619922 0.000000 0.000000 0.000000 -3.690732 25.052869 0.661951 -58.419022 7.800772 -15.252012 -1.107259 -65.892548 -0.012820 18.830844 -1.800734 -0.312875 -0.241587 0.074593 -0.000000 0.000000 0.000000 0.000000 0.000000 0.000000 0.000000 14.940091 0.295890 -1.530891 75.347175 9.364726 3.706827 1.276282 60.622489 -0.030801 -9.911699 11.526671 -1.048085 0.139254 -0.371047 -0.000000 0.000000 0.000000 0.000000 0.000000 0.000000 0.000000 
-1.306275 16.633515 -2.076603 -169.484975 67.487732 -161.002697 -9.718004 1.502494 3.564453 -23.081185 -4.095043 -25.630142 -2.748762 -0.249580 19.448677 1.444774 4.487391 -14.432432 179.227500 -0.000000 -10.928600 10.698182 -2.441342 -2.038432 1.499820 -15.118126 -24.104418 -1.454431 -4.207609 67.504722 -1.483809 -5.097219 13.120250 -1.314299 0.000000 -58.164400 3.267042 2.073782 -3.724295 -0.650546 1.630685 -3.463726 -7.579555 1.709511 1.173147 10.355804 -8.752179 -9.905530 -3.381098 -0.238626 -0.625815 0.000000 0.000000 0.000000 -4.182496 24.684551 0.578081 -58.835781 6.630143 -14.171748 -1.133288 -65.794177 -0.013700 18.728293 -1.730250 -0.299749 -0.239931 0.076814 -0.000000 0.000000 0.000000 0.000000 0.000000 0.000000 0.000000 15.006146 -0.085888 -1.448909 75.206951 8.748935 3.079244 1.316357 59.808516 -0.029497 -10.041442 11.552664 -1.063324 0.141142 -0.360826 -0.000000 0.000000 0.000000 0.000000 0.000000 0.000000 0.000000 
-1.175905 16.639064 -2.151662 -170.038729 66.754843 -161.130917 -9.746445 1.483337 3.573395 -23.128536 -4.561522 -25.051658 -2.766935 -0.265213 19.235590 1.361462 4.036619 -14.323920 179.278400 -0.000000 -11.456700 10.668425 -2.218195 -1.683691 1.358712 -12.958033 -25.606105 -1.553941 -4.209698 68.297248 -1.598707 -6.395382 11.510108 -1.647900 0.000000 -55.493500 3.429844 1.922674 -4.040286 -0.591022 1.455378 -3.507822 -7.527265 1.533078 1.197201 10.240310 -8.944018 -9.922059 -3.399507 -0.240284 -0.628311 0.000000 0.000000 0.000000 -4.686151 24.287081 0.498821 -59.293088 5.458649 -13.021496 -1.162366 -65.653140 -0.014699 18.622716 -1.664776 -0.287520 -0.238300 0.079528 -0.000000 0.000000 0.000000 0.000000 0.000000 0.000000 0.000000 15.024738 -0.478904 -1.370007 75.026305 8.110229 2.470168 1.354456 59.035797 -0.028106 -10.147612 11.567257 -1.075064 0.142718 -0.350591 -0.000000 0.000000 0.000000 0.000000 0.000000 0.000000 0.000000 
-1.047184 16.647606 -2.229732 -170.521497 66.008739 -161.198854 -9.785323 1.458858 3.585388 -23.131382 -5.041705 -24.367315 -2.783672 -0.296481 18.845166 1.280193 3.603246 -14.195623 179.329001 0.000000 -11.953901 10.617219 -1.998642 -1.317144 1.133502 -10.809168 -27.002625 -1.617904 -4.189270 68.689556 -1.676410 -7.303974 9.929531 -1.811600 -0.000000 -53.121900 3.623789 1.763983 -4.362806 -0.522427 1.269383 -3.552581 -7.467457 1.345799 1.221500 10.109198 -9.151376 -9.930414 -3.411763 -0.241545 -0.628219 0.000000 0.000000 0.000000 -5.189607 23.860812 0.424641 -59.788202 4.297140 -11.800707 -1.193661 -65.481895 -0.015870 18.517079 -1.606322 -0.276791 -0.236827 0.082930 -0.000000 0.000000 0.000000 0.000000 0.000000 0.000000 0.000000 14.999850 -0.899676 -1.294764 74.809761 7.463653 1.896638 1.391044 58.304121 -0.026615 -10.230886 11.575745 -1.083907 0.144101 -0.340450 -0.000000 0.000000 0.000000 0.000000 0.000000 0.000000 0.000000 
-0.919568 16.658582 -2.310653 -170.953904 65.237693 -161.227437 -9.831384 1.431592 3.606603 -23.099178 -5.548801 -23.589072 -2.797852 -0.342106 18.294953 1.205515 3.209872 -14.058686 179.375900 0.000000 -12.440400 10.545209 -1.784501 -0.945817 0.824809 -8.724223 -28.300046 -1.645860 -4.147598 68.690874 -1.716082 -7.846825 8.428845 -1.841700 0.000001 -51.076300 3.839751 1.593151 -4.693499 -0.446376 1.068658 -3.598873 -7.400672 1.143464 1.244884 9.965638 -9.377704 -9.930024 -3.418159 -0.242443 -0.625293 0.000000 0.000000 0.000000 -5.680456 23.395253 0.356820 -60.317238 3.167772 -10.514838 -1.225805 -65.300328 -0.017237 18.413112 -1.555964 -0.267561 -0.235579 0.087145 -0.000000 0.000000 0.000000 0.000000 0.000000 0.000000 0.000000 14.935711 -1.352872 -1.223102 74.562516 6.810386 1.357960 1.425923 57.621863 -0.025040 -10.289833 11.581312 -1.089850 0.145322 -0.330519 -0.000000 0.000000 0.000000 0.000000 0.000000 0.000000 0.000000 
